# xmcd
#
# Track frame offsets:
#	150
#	18362
#	35832
#	60715
#	62597
#	78067
#	83772
#	102980
#	118067
#	142965
#	162775
#	179282
#	196997
#
# Disc length: 2808 seconds
#
# Revision: 13
# Processed by: cddbd v1.5.1PL2 Copyright (c) Steve Scherf et al.
# Submitted via: AudioConverter v5.0 Copyright (c) AC Productions Ltd
#
DISCID=a30af60d
DTITLE=Mannheim Steamroller - Fresh Aire 7
DYEAR=1990
DGENRE=New Age
TTITLE0=Conjuring The Number 7
TTITLE1=Sunday The 7th Day
TTITLE2=The 7 Colours Of The Rainbow
TTITLE3=The 7 C's
TTITLE4=The 7 Metals Of Alchemy
TTITLE5=Chakra 1
TTITLE6=Chakra 2
TTITLE7=Chakra 3
TTITLE8=Chakra 4
TTITLE9=Chakra 5
TTITLE10=Chakra 6
TTITLE11=Chakra 7
TTITLE12=The 7 Stars Of The Big Dipper
EXTD=
EXTT0=
EXTT1=
EXTT2=
EXTT3=
EXTT4=
EXTT5=
EXTT6=
EXTT7=
EXTT8=
EXTT9=
EXTT10=
EXTT11=
EXTT12=
PLAYORDER=
